<!DOCTYPE svg PUBLIC "-//W3C//DTD SVG 1.1//EN" "http://www.w3.org/Graphics/SVG/1.1/DTD/svg11.dtd">
<!-- Uploaded to: SVG Repo, www.svgrepo.com, Transformed by: SVG Repo Mixer Tools -->
<svg height="800px" width="800px" version="1.1" id="Layer_1" xmlns="http://www.w3.org/2000/svg" xmlns:xlink="http://www.w3.org/1999/xlink" viewBox="0 0 512.001 512.001" xml:space="preserve" fill="#000000">
<g id="SVGRepo_bgCarrier" stroke-width="0"/>
<g id="SVGRepo_tracerCarrier" stroke-linecap="round" stroke-linejoin="round"/>
<g id="SVGRepo_iconCarrier"> <circle style="fill:#fbff00;" cx="255.995" cy="278.826" r="222.672"/> <path style="fill:#ff3705;" d="M91.264,247.814H35.491c-1.413,10.136-2.16,20.485-2.16,31.014c0,13.648,1.235,27.011,3.588,39.983 h56.282c-3.136-12.815-4.812-26.201-4.812-39.983C88.389,268.229,89.382,257.863,91.264,247.814z M476.509,247.814h-55.773 c1.881,10.049,2.876,20.415,2.876,31.014c0,13.781-1.676,27.167-4.812,39.983h56.283c2.352-12.971,3.587-26.333,3.587-39.983 C478.67,268.299,477.922,257.95,476.509,247.814z"/> <circle style="opacity:0.2;enable-background:new ;" cx="255.995" cy="278.826" r="167.607"/> <path style="opacity:0.2;enable-background:new ;" d="M275.675,375.563c-10.818-3.851-28.523-3.851-39.342,0l-38.299,13.621 c-10.821,3.847-19.415-2.401-19.099-13.876l1.118-40.636c0.315-11.478-5.157-28.316-12.159-37.418l-24.787-32.214 c-7.003-9.102-3.72-19.206,7.295-22.454l38.99-11.493c11.014-3.246,25.337-13.653,31.831-23.125l22.979-33.528 c6.492-9.474,17.115-9.474,23.608,0l22.981,33.528c6.491,9.471,20.815,19.88,31.831,23.125l38.989,11.493 c11.015,3.248,14.298,13.352,7.295,22.454l-24.787,32.214c-7.002,9.102-12.475,25.941-12.159,37.418l1.117,40.636 c0.316,11.475-8.278,17.723-19.099,13.876L275.675,375.563z"/> <path style="opacity:0.1;enable-background:new ;" d="M346.088,75.15c-7.438,3.881-14.44,7.748-20.719,11.441 c-12.231-14.745-29.964-25.465-50.406-29.622c-6.252-0.528-12.575-0.81-18.964-0.81s-12.711,0.282-18.964,0.81 c-20.442,4.157-38.175,14.878-50.406,29.622c-6.278-3.692-13.28-7.559-20.719-11.441c-64.057,28.375-112.217,86.076-127.463,156.078 c4.76,1.389,9.788,2.15,14.997,2.15c31.521,0,95.316-28.637,133.187-50.907c15.884,19.148,41.041,31.524,69.369,31.524 s53.485-12.377,69.369-31.524c37.871,22.269,101.666,50.907,133.187,50.907c5.209,0,10.237-0.76,14.997-2.15 C458.307,161.226,410.147,103.525,346.088,75.15z"/> <path style="fill:#ff3705;" d="M53.444,10.503c40.602,0,134.769,47.522,158.078,67.731l0.002-0.009 c8.582,7.622,13.99,18.741,13.99,31.125s-5.409,23.503-13.991,31.125v-0.013c-23.309,20.214-117.476,67.734-158.078,67.734 C23.927,208.197,0,184.266,0,154.752V63.948C0,34.432,23.927,10.503,53.444,10.503z"/> <path style="opacity:0.1;enable-background:new ;" d="M211.524,78.226l-0.002,0.009c-7.453-6.461-22.154-15.716-40.025-25.315 c-12.362,15.889-19.657,35.384-19.657,56.432s7.295,40.541,19.658,56.43c17.871-9.6,32.572-18.853,40.025-25.317v0.013 c8.582-7.622,13.991-18.741,13.991-31.125C225.513,96.968,220.105,85.848,211.524,78.226z"/> <g style="opacity:0.1;"> <path d="M138.112,117.688H26.463c-4.604,0-8.336-3.731-8.336-8.336s3.732-8.336,8.336-8.336h111.649 c4.604,0,8.336,3.731,8.336,8.336C146.449,113.955,142.717,117.688,138.112,117.688z"/> <path d="M127.445,86.485c-0.895,0-1.805-0.146-2.7-0.451L50.156,60.51c-4.356-1.491-6.679-6.229-5.189-10.585 c1.491-4.357,6.228-6.68,10.586-5.189l74.589,25.524c4.356,1.491,6.679,6.229,5.189,10.585 C134.148,84.307,130.911,86.485,127.445,86.485z"/> <path d="M52.855,174.414c-3.466,0-6.702-2.177-7.887-5.64c-1.491-4.356,0.833-9.096,5.189-10.585l74.589-25.519 c4.356-1.494,9.096,0.831,10.586,5.189c1.491,4.356-0.833,9.096-5.189,10.586l-74.589,25.518 C54.66,174.269,53.749,174.414,52.855,174.414z"/> </g> <path style="fill:#ff3705;" d="M458.556,10.503c-40.602,0-134.769,47.522-158.078,67.731l-0.002-0.009 c-8.581,7.622-13.988,18.741-13.988,31.125s5.409,23.503,13.991,31.125l0.001-0.013c23.309,20.214,117.476,67.734,158.078,67.734 c29.517,0,53.444-23.93,53.444-53.444V63.948C512,34.432,488.073,10.503,458.556,10.503z"/> <path style="opacity:0.1;enable-background:new ;" d="M300.476,78.226l0.002,0.009c7.453-6.461,22.154-15.716,40.025-25.315 c12.362,15.889,19.657,35.384,19.657,56.432s-7.296,40.541-19.658,56.43c-17.871-9.6-32.572-18.853-40.025-25.317l-0.001,0.013 c-8.582-7.622-13.991-18.741-13.991-31.125C286.487,96.968,291.895,85.848,300.476,78.226z"/> <g style="opacity:0.1;"> <path d="M485.537,117.688H373.888c-4.604,0-8.336-3.731-8.336-8.336s3.733-8.336,8.336-8.336h111.649 c4.604,0,8.336,3.731,8.336,8.336C493.873,113.955,490.141,117.688,485.537,117.688z"/> <path d="M384.555,86.485c-3.466,0-6.702-2.177-7.887-5.64c-1.491-4.356,0.833-9.096,5.189-10.585l74.59-25.524 c4.356-1.495,9.096,0.83,10.586,5.189c1.491,4.356-0.833,9.096-5.189,10.585l-74.589,25.523 C386.36,86.339,385.45,86.485,384.555,86.485z"/> <path d="M459.146,174.414c-0.895,0-1.805-0.146-2.699-0.451l-74.59-25.519c-4.356-1.491-6.679-6.23-5.189-10.586 c1.491-4.356,6.231-6.682,10.586-5.189l74.59,25.519c4.356,1.491,6.679,6.229,5.189,10.585 C465.848,172.237,462.611,174.414,459.146,174.414z"/> </g> <ellipse style="fill:#ff3705;" cx="255.995" cy="109.352" rx="86.988" ry="79.463"/> <path style="fill:#fbff00;" d="M231.961,185.716c7.638,2.002,15.697,3.098,24.04,3.098c8.343,0,16.402-1.096,24.04-3.098V32.984 c-7.638-2.004-15.697-3.098-24.04-3.098c-8.343,0-16.402,1.094-24.04,3.098V185.716z"/> <circle style="fill:#ffffff;" cx="364.224" cy="375.896" r="48.569"/> </g>
</svg>